# xmcd
#
# Track frame offsets:
#	150
#	13034
#	24427
#	33720
#	44557
#	55227
#	64805
#	74182
#	85311
#	95996
#	105769
#	116342
#	127390
#	137453
#	145665
#	154599
#	167175
#	178109
#	190059
#	202610
#	212481
#	223298
#	234897
#	242791
#	254458
#
# Disc length: 3543 seconds
#
# Revision: 2
# Processed by: cddbd v1.5.2PL0 Copyright (c) Steve Scherf et al.
# Submitted via: audiograbber 1.83.01
#
DISCID=6f0dd519
DTITLE=Various Artist - Any Day Now - The Quality Records Story  [CD3)
DYEAR=2013
DGENRE=Oldies
TTITLE0=Curtis Lee - Under The Moon Of Love 
TTITLE1=Joe Jones - You Talk Too Much 
TTITLE2=Royal Tones - Big Wheel
TTITLE3=Freddy Cannon - Come On And Love Me 
TTITLE4=Beau Marks - The Tender Years 
TTITLE5=Danny and The Juniors - Back To The Hop 
TTITLE6=Tico and The Triumphs - I Don't Believe Them 
TTITLE7=Gabriel and The Angels - Don't Wanna Twist No More 
TTITLE8=Crystals - Uptown 
TTITLE9=Clarence 'Frogman' Henry - Lonely Street 
TTITLE10=Temptations - Fickle Little Girl 
TTITLE11=Mystics - Blue Star 
TTITLE12=Little Billy and The Essentials - The Dance Is Over 
TTITLE13=Fireballs - Quite A Party 
TTITLE14=Ray Peterson - You Didn't Care- 
TTITLE15=Wes Dakus and The Rebels - Walk Down 
TTITLE16=Eta James - Don't Cry Baby 
TTITLE17=Jive Five - Hully Gully Callin' Time 
TTITLE18=Pips - Darling 
TTITLE19=Del Shannon - You Never Talked About Me 
TTITLE20=Hollywood Argyles - The Bug Eyed Man 
TTITLE21=Dick Roman - A Summer Place 
TTITLE22=Ace Cannon - 38 Special 
TTITLE23=Volumes - Come Back Into My Heart 
TTITLE24=Carol Collins - Johnny, Oh Johnny 
EXTD=
EXTT0=
EXTT1=
EXTT2=
EXTT3=
EXTT4=
EXTT5=
EXTT6=
EXTT7=
EXTT8=
EXTT9=
EXTT10=
EXTT11=
EXTT12=
EXTT13=
EXTT14=
EXTT15=
EXTT16=
EXTT17=
EXTT18=
EXTT19=
EXTT20=
EXTT21=
EXTT22=
EXTT23=
EXTT24=
PLAYORDER=
